HIERARCHY
ROOT hip
{
	OFFSET 0.000000 0.000000 0.000000 
	CHANNELS 6 Xposition Yposition Zposition Xrotation Zrotation Yrotation
	JOINT abdomen
	{
		OFFSET 0.000000 3.402643 0.000000 
		CHANNELS 3 Xrotation Zrotation Yrotation
		JOINT chest
		{
			OFFSET 0.000000 8.438565 -0.680529 
			CHANNELS 3 Xrotation Zrotation Yrotation
			JOINT neck
			{
				OFFSET 0.000000 10.207942 -0.272212 
				CHANNELS 3 Xrotation Zrotation Yrotation
				JOINT head
				{
					OFFSET 0.000000 3.130431 0.000000 
					CHANNELS 3 Xrotation Zrotation Yrotation
					End Site
					{
						OFFSET 0.000000 3.130435 0.000000 
					}
				}
			}
			JOINT lCollar
			{
				OFFSET 3.470700 6.669187 -0.816635 
				CHANNELS 3 Yrotation Zrotation Xrotation
				JOINT lShldr
				{
					OFFSET 3.198488 0.000000 0.000000 
					CHANNELS 3 Zrotation Yrotation Xrotation
					JOINT lForeArm
					{
						OFFSET 10.139888 0.000000 0.000000 
						CHANNELS 3 Yrotation Zrotation Xrotation
						JOINT lHand
						{
							OFFSET 8.370511 0.000000 0.000000 
							CHANNELS 3 Zrotation Yrotation Xrotation
							End Site
							{
								OFFSET 4.083176 0.000000 0.000000 
							}
						}
					}
				}
			}
			JOINT rCollar
			{
				OFFSET -3.470700 6.669187 -0.816635 
				CHANNELS 3 Yrotation Zrotation Xrotation
				JOINT rShldr
				{
					OFFSET -3.198488 0.000000 0.000000 
					CHANNELS 3 Zrotation Yrotation Xrotation
					JOINT rForeArm
					{
						OFFSET -10.139888 0.000000 0.000000 
						CHANNELS 3 Yrotation Zrotation Xrotation
						JOINT rHand
						{
							OFFSET -8.370511 0.000000 0.000000 
							CHANNELS 3 Zrotation Yrotation Xrotation
							End Site
							{
								OFFSET -4.083176 0.000000 0.000000 
							}
						}
					}
				}
			}
		}
	}
	JOINT lThigh
	{
		OFFSET 5.308129 -1.633274 1.361059 
		CHANNELS 3 Xrotation Zrotation Yrotation
		JOINT lShin
		{
			OFFSET -2.041588 -20.007561 0.000000 
			CHANNELS 3 Xrotation Zrotation Yrotation
			JOINT lFoot
			{
				OFFSET 0.000000 -19.190928 -1.224953 
				CHANNELS 3 Xrotation Yrotation Zrotation
				End Site
				{
					OFFSET 0.000000 -2.449906 4.627600 
				}
			}
		}
	}
	JOINT rThigh
	{
		OFFSET -5.308129 -1.633274 1.361059 
		CHANNELS 3 Xrotation Zrotation Yrotation
		JOINT rShin
		{
			OFFSET 2.041588 -20.007561 0.000000 
			CHANNELS 3 Xrotation Zrotation Yrotation
			JOINT rFoot
			{
				OFFSET 0.000000 -19.190928 -1.224953 
				CHANNELS 3 Xrotation Yrotation Zrotation
				End Site
				{
					OFFSET 0.000000 -2.449906 4.627600 
				}
			}
		}
	}
}
MOTION
Frames: 13
Frame Time: 0.033333
0.723027 53.178154 -9.046299 -0.233499 -3.743234 -5.383191 0.000000 0.000000 0.000000 -1.219042 -1.289012 -0.508123 4.950404 -1.295210 -4.278457 15.278013 8.809686 -4.614315 0.469313 -3.509817 -0.469050 -46.954922 5.417439 -26.314695 -23.229919 0.405706 25.755966 -4.035402 4.701163 -3.559502 -1.002189 1.464364 -0.527589 37.806198 -1.319185 -11.106659 8.581724 5.432928 27.131378 5.840192 2.580925 -3.119775 6.569037 11.227243 9.064647 1.285195 -1.919413 4.026875 -5.580842 0.319943 -6.861510 -1.991536 -8.832060 -7.479052 12.671297 6.863811 12.259034 -1.705319 -0.043530 3.385870 
0.712675 53.113914 -9.300704 -0.609987 -4.369620 -7.208908 0.000000 0.000000 0.000000 0.028213 -1.455052 -0.341935 4.850012 -1.665354 -4.240178 17.070574 8.217897 -4.428989 1.230191 -5.375539 0.725725 -51.109341 6.064441 -23.377905 -27.642769 -0.110459 28.265766 -9.085823 4.172488 -3.573943 -0.997759 2.831082 0.625593 40.813438 -2.255736 -5.556052 16.565943 7.024942 25.364182 7.010816 0.737101 -3.185760 7.037589 11.783471 9.886994 1.548861 -2.115511 5.370253 -5.463739 0.368343 -6.848764 -6.415559 -9.071163 -7.016306 21.031534 7.138268 16.630369 -1.035609 0.003521 1.667750 
0.672999 53.123753 -9.535952 -0.433726 -5.395335 -9.427288 0.000000 0.000000 0.000000 0.798364 -1.181638 0.117163 4.758279 -1.773316 -3.859500 18.210865 7.410730 -4.323029 2.016391 -6.581167 1.484207 -55.298470 5.693886 -20.077353 -29.903061 -0.743086 30.358498 -7.959665 5.764328 -3.696039 -0.675426 4.174626 1.360849 44.351753 -2.241536 -3.143116 21.391739 7.463307 27.046465 8.429466 -1.375973 -3.322113 6.411387 12.776672 10.505425 3.605228 -1.977231 6.718910 -6.443142 0.429742 -7.171742 -9.343107 -8.629796 -6.841657 25.580845 7.949216 20.818115 1.483917 0.011531 -0.141305 
0.587862 53.160034 -9.724627 -0.489663 -6.183958 -11.002460 0.000000 0.000000 0.000000 1.575054 -1.240215 0.322190 5.047788 -1.744185 -3.810394 19.038769 7.400031 -4.421125 1.488806 -6.863310 2.154256 -59.591679 6.307392 -16.545925 -32.459560 -1.770997 30.137291 -9.472105 7.295140 -3.879815 -0.674783 5.379454 2.089121 47.611809 -2.091235 -0.220325 24.503641 7.826977 30.643805 9.897682 -0.715372 -3.236897 6.547721 13.401842 10.969471 4.170433 -1.752429 8.224607 -6.520874 0.421332 -7.507812 -11.754841 -9.401315 -7.411735 29.212780 8.891988 24.713257 4.371826 0.140717 3.629953 
0.428375 53.102875 -9.837437 -0.663773 -6.829800 -12.060632 0.000000 0.000000 0.000000 2.229060 -1.220701 -0.117369 5.594973 -1.705013 -3.908005 19.171310 6.167511 -3.888835 1.395798 -7.431805 2.776890 -62.741180 6.441042 -12.504864 -34.438599 -3.014082 30.502638 -10.944042 8.829726 -4.102012 -0.873574 5.932608 2.679779 51.813503 -2.505820 0.367516 27.995789 7.349143 30.573542 12.764159 -0.413932 -3.127309 5.835013 14.182064 11.196219 6.475672 -1.442233 9.156370 -7.451711 0.543873 -8.135948 -12.877702 -10.387272 -8.376979 30.982159 10.039478 28.522902 6.551405 0.401005 6.647315 
0.220698 53.150032 -9.868395 -0.872496 -7.373619 -12.773840 0.000000 0.000000 0.000000 2.861812 -1.279256 -0.459306 6.016111 -1.197917 -4.219868 19.405918 4.902894 -3.518054 0.911474 -6.970947 3.316210 -66.032593 6.092893 -7.747689 -36.361637 -4.214095 32.190739 -11.678339 11.046934 -4.393588 -1.617821 6.412741 3.270946 55.669830 -2.435532 0.952905 28.942848 7.003881 32.383537 12.152359 0.621549 -3.022833 6.842310 14.643746 11.804122 5.604175 -1.245481 9.618599 -6.953924 0.552074 -8.430765 -13.276081 -11.458819 -9.136045 30.871981 10.469693 28.896427 7.620487 0.555065 7.940122 
-0.023891 53.155945 -9.871339 -0.799064 -7.415994 -13.889041 0.000000 0.000000 0.000000 3.225376 -1.220639 -0.586221 6.070522 -1.597537 -4.064186 19.381208 4.542945 -3.369694 1.070568 -8.132026 3.689841 -67.083466 4.900578 -2.042983 -38.396858 -5.884871 34.267151 -11.400111 12.181660 -4.512517 -1.760575 6.387102 3.595254 58.371902 -2.630070 1.148439 30.423794 7.019751 29.294436 14.195192 0.069715 -3.024342 7.787848 14.759617 12.289476 4.512386 -1.294118 10.638872 -6.426503 0.483336 -8.747392 -13.913475 -12.711647 -9.564925 30.082165 9.834160 23.854170 6.757189 0.415288 6.350449 
-0.351589 53.163620 -9.804526 -0.671809 -7.517127 -15.114427 0.000000 0.000000 0.000000 3.407247 -1.054651 -0.478614 6.138399 -1.500359 -3.937008 19.691280 3.471289 -3.159738 1.032377 -8.123400 3.837642 -68.026291 2.924248 4.759655 -38.632259 -7.555214 40.872040 -10.612440 9.471706 -4.150815 -1.791193 6.694132 3.774256 59.915985 -3.066588 2.598250 30.298460 7.235947 30.746622 12.152426 0.064262 -3.082798 9.343795 14.989354 13.223509 2.709404 -1.519361 11.050634 -5.808262 0.471331 -9.003181 -14.041156 -13.952556 -9.979594 27.772888 9.023143 18.476089 6.946579 0.427949 6.084425 
-0.813702 53.167435 -9.735364 -0.405239 -6.839125 -17.000175 0.000000 0.000000 0.000000 3.289071 -1.425780 0.078101 6.029095 -1.881488 -3.380930 19.998335 3.256894 -3.120184 1.369107 -8.249260 3.740655 -68.319061 0.434941 11.364434 -40.002914 -8.952814 45.480659 -6.769127 11.229290 -4.078073 -1.285475 6.601357 3.685460 61.703152 -3.983433 2.429609 29.991770 7.020821 31.579191 10.961858 0.389462 -3.087752 10.359322 14.607956 13.628606 1.510021 -1.725643 13.663256 -5.212739 0.438039 -9.543488 -14.383400 -14.851497 -9.064739 24.033504 7.020465 11.778351 7.807173 0.463048 6.420971 
-1.429994 53.080696 -9.586175 -0.563940 -5.956094 -20.064857 0.000000 0.000000 0.000000 3.273762 -2.001161 1.612050 6.112110 -2.420323 -2.052663 19.700233 3.500036 -3.306541 2.651956 -8.575196 3.800465 -68.251869 -2.157185 15.021298 -40.799103 -9.057386 49.019505 -4.378911 12.832993 -3.997290 -0.189973 6.074708 3.731431 63.108536 -4.858896 2.382540 28.987648 7.142317 29.930586 10.462516 -1.751531 -3.330111 12.047834 14.099372 14.275818 1.236950 -2.185438 15.661745 -5.697251 0.543420 -10.394127 -14.354259 -15.701364 -8.026207 19.393993 5.028971 6.836457 9.550909 0.683166 7.695547 
-2.077626 52.955791 -9.490973 -0.562212 -5.210567 -21.185995 0.000000 0.000000 0.000000 3.369166 -2.225514 1.758761 6.062617 -2.586460 -1.906323 19.596201 2.769387 -3.099162 2.759684 -8.642704 3.899598 -66.918816 -4.655894 18.135355 -41.182426 -9.467810 52.341805 -2.120295 4.646319 -3.541244 -0.163087 6.086686 3.839280 63.187637 -5.879821 2.853984 29.332342 7.250136 30.193319 10.459556 -2.405267 -3.399564 12.700057 14.068796 14.440562 1.597849 -2.330299 13.687339 -6.777443 0.665552 -11.172723 -13.073961 -16.509741 -7.735155 12.927391 3.456169 1.688112 12.841834 1.170966 10.081427 
-2.771168 52.764462 -9.381320 -0.108450 -4.314418 -21.284018 0.000000 0.000000 0.000000 3.073746 -2.225973 1.319261 5.926739 -2.517678 -2.199434 19.331272 2.340582 -2.980814 2.372567 -8.345335 3.600848 -64.721336 -7.169145 22.068348 -41.659508 -10.951127 47.498997 0.253785 0.817613 -3.462869 -0.508571 5.868568 3.534082 63.454151 -6.933797 2.862594 29.240191 7.161979 30.627129 10.924598 -2.694261 -3.429229 12.327064 14.097564 14.353407 1.626141 -2.218138 15.384801 -6.465741 0.680384 -12.264836 -10.789859 -17.780130 -8.775352 4.850223 3.142207 -0.929562 17.160942 1.988760 13.143221 
-3.611161 52.526772 -9.303840 0.890271 -3.922051 -19.510984 0.000000 0.000000 0.000000 2.622782 -1.640615 -0.195512 5.742991 -1.969126 -3.430070 18.757069 2.165171 -2.912135 0.859839 -7.787489 3.096147 -62.707455 -8.470620 23.757019 -42.668026 -11.530707 41.665321 -1.517377 0.017477 -3.400087 -1.955561 6.379458 3.074216 62.900959 -8.052311 2.785513 29.420658 7.068306 31.179844 11.029776 -2.660980 -3.419171 10.992747 15.173112 14.166114 1.879578 -1.634914 13.594428 -6.360271 0.757343 -13.548291 -8.699903 -18.530731 -9.687871 -1.109648 3.273293 -1.792845 20.375605 2.883198 15.909015 
